<svg id="visual" viewBox="0 0 960 540" width="960" height="540" xmlns="http://www.w3.org/2000/svg" xmlns:xlink="http://www.w3.org/1999/xlink" version="1.1"><rect x="0" y="0" width="960" height="540" fill="#1e293b"></rect><path d="M0 401L14.5 399.8C29 398.7 58 396.3 87.2 393.5C116.3 390.7 145.7 387.3 174.8 386.2C204 385 233 386 262 389.2C291 392.3 320 397.7 349 400.3C378 403 407 403 436.2 400.2C465.3 397.3 494.7 391.7 523.8 392.3C553 393 582 400 611 397.8C640 395.7 669 384.3 698 383.2C727 382 756 391 785.2 391.2C814.3 391.3 843.7 382.7 872.8 384.5C902 386.3 931 398.7 945.5 404.8L960 411L960 541L945.5 541C931 541 902 541 872.8 541C843.7 541 814.3 541 785.2 541C756 541 727 541 698 541C669 541 640 541 611 541C582 541 553 541 523.8 541C494.7 541 465.3 541 436.2 541C407 541 378 541 349 541C320 541 291 541 262 541C233 541 204 541 174.8 541C145.7 541 116.3 541 87.2 541C58 541 29 541 14.5 541L0 541Z" fill="#ffd182"></path><path d="M0 438L14.5 438C29 438 58 438 87.2 437.2C116.3 436.3 145.7 434.7 174.8 430.2C204 425.7 233 418.3 262 415.2C291 412 320 413 349 415.3C378 417.7 407 421.3 436.2 424.7C465.3 428 494.7 431 523.8 429.3C553 427.7 582 421.3 611 420.5C640 419.7 669 424.3 698 428.3C727 432.3 756 435.7 785.2 432.3C814.3 429 843.7 419 872.8 420C902 421 931 433 945.5 439L960 445L960 541L945.5 541C931 541 902 541 872.8 541C843.7 541 814.3 541 785.2 541C756 541 727 541 698 541C669 541 640 541 611 541C582 541 553 541 523.8 541C494.7 541 465.3 541 436.2 541C407 541 378 541 349 541C320 541 291 541 262 541C233 541 204 541 174.8 541C145.7 541 116.3 541 87.2 541C58 541 29 541 14.5 541L0 541Z" fill="#fcc060"></path><path d="M0 469L14.5 467.2C29 465.3 58 461.7 87.2 459C116.3 456.3 145.7 454.7 174.8 454.5C204 454.3 233 455.7 262 455.2C291 454.7 320 452.3 349 454.5C378 456.7 407 463.3 436.2 463.8C465.3 464.3 494.7 458.7 523.8 456.7C553 454.7 582 456.3 611 457.7C640 459 669 460 698 460.8C727 461.7 756 462.3 785.2 460.7C814.3 459 843.7 455 872.8 457.3C902 459.7 931 468.3 945.5 472.7L960 477L960 541L945.5 541C931 541 902 541 872.8 541C843.7 541 814.3 541 785.2 541C756 541 727 541 698 541C669 541 640 541 611 541C582 541 553 541 523.8 541C494.7 541 465.3 541 436.2 541C407 541 378 541 349 541C320 541 291 541 262 541C233 541 204 541 174.8 541C145.7 541 116.3 541 87.2 541C58 541 29 541 14.5 541L0 541Z" fill="#f8b03d"></path><path d="M0 499L14.5 498.7C29 498.3 58 497.7 87.2 497.2C116.3 496.7 145.7 496.3 174.8 495.3C204 494.3 233 492.7 262 493C291 493.3 320 495.7 349 497.8C378 500 407 502 436.2 499.5C465.3 497 494.7 490 523.8 488.7C553 487.3 582 491.7 611 494C640 496.3 669 496.7 698 496.5C727 496.3 756 495.7 785.2 493.5C814.3 491.3 843.7 487.7 872.8 485.8C902 484 931 484 945.5 484L960 484L960 541L945.5 541C931 541 902 541 872.8 541C843.7 541 814.3 541 785.2 541C756 541 727 541 698 541C669 541 640 541 611 541C582 541 553 541 523.8 541C494.7 541 465.3 541 436.2 541C407 541 378 541 349 541C320 541 291 541 262 541C233 541 204 541 174.8 541C145.7 541 116.3 541 87.2 541C58 541 29 541 14.5 541L0 541Z" fill="#f59e0b"></path></svg>