<svg id="visual" viewBox="0 0 960 540" width="960" height="540" xmlns="http://www.w3.org/2000/svg" xmlns:xlink="http://www.w3.org/1999/xlink" version="1.1"><rect x="0" y="0" width="960" height="540" fill="#1e293b"></rect><path d="M0 157L13.3 152.5C26.7 148 53.3 139 80 134.2C106.7 129.3 133.3 128.7 160 130.3C186.7 132 213.3 136 240 136.5C266.7 137 293.3 134 320 132.5C346.7 131 373.3 131 400 130.8C426.7 130.7 453.3 130.3 480 136.2C506.7 142 533.3 154 560 155.3C586.7 156.7 613.3 147.3 640 141.7C666.7 136 693.3 134 720 136.7C746.7 139.3 773.3 146.7 800 145.7C826.7 144.7 853.3 135.3 880 134.7C906.7 134 933.3 142 946.7 146L960 150L960 0L946.7 0C933.3 0 906.7 0 880 0C853.3 0 826.7 0 800 0C773.3 0 746.7 0 720 0C693.3 0 666.7 0 640 0C613.3 0 586.7 0 560 0C533.3 0 506.7 0 480 0C453.3 0 426.7 0 400 0C373.3 0 346.7 0 320 0C293.3 0 266.7 0 240 0C213.3 0 186.7 0 160 0C133.3 0 106.7 0 80 0C53.3 0 26.7 0 13.3 0L0 0Z" fill="#ffd182"></path><path d="M0 97L13.3 100C26.7 103 53.3 109 80 113.2C106.7 117.3 133.3 119.7 160 122C186.7 124.3 213.3 126.7 240 124C266.7 121.3 293.3 113.7 320 110.5C346.7 107.3 373.3 108.7 400 110.8C426.7 113 453.3 116 480 115.3C506.7 114.7 533.3 110.3 560 106.5C586.7 102.7 613.3 99.3 640 98C666.7 96.7 693.3 97.3 720 100.7C746.7 104 773.3 110 800 112.3C826.7 114.7 853.3 113.3 880 114.8C906.7 116.3 933.3 120.7 946.7 122.8L960 125L960 0L946.7 0C933.3 0 906.7 0 880 0C853.3 0 826.7 0 800 0C773.3 0 746.7 0 720 0C693.3 0 666.7 0 640 0C613.3 0 586.7 0 560 0C533.3 0 506.7 0 480 0C453.3 0 426.7 0 400 0C373.3 0 346.7 0 320 0C293.3 0 266.7 0 240 0C213.3 0 186.7 0 160 0C133.3 0 106.7 0 80 0C53.3 0 26.7 0 13.3 0L0 0Z" fill="#fcc060"></path><path d="M0 74L13.3 75C26.7 76 53.3 78 80 80.7C106.7 83.3 133.3 86.7 160 87.5C186.7 88.3 213.3 86.7 240 82.2C266.7 77.7 293.3 70.3 320 67.5C346.7 64.7 373.3 66.3 400 68.5C426.7 70.7 453.3 73.3 480 77.2C506.7 81 533.3 86 560 88.2C586.7 90.3 613.3 89.7 640 87.5C666.7 85.3 693.3 81.7 720 79C746.7 76.3 773.3 74.7 800 72.2C826.7 69.7 853.3 66.3 880 64.7C906.7 63 933.3 63 946.7 63L960 63L960 0L946.7 0C933.3 0 906.7 0 880 0C853.3 0 826.7 0 800 0C773.3 0 746.7 0 720 0C693.3 0 666.7 0 640 0C613.3 0 586.7 0 560 0C533.3 0 506.7 0 480 0C453.3 0 426.7 0 400 0C373.3 0 346.7 0 320 0C293.3 0 266.7 0 240 0C213.3 0 186.7 0 160 0C133.3 0 106.7 0 80 0C53.3 0 26.7 0 13.3 0L0 0Z" fill="#f8b03d"></path><path d="M0 35L13.3 35.5C26.7 36 53.3 37 80 36.7C106.7 36.3 133.3 34.7 160 35.7C186.7 36.7 213.3 40.3 240 41.5C266.7 42.7 293.3 41.3 320 39.7C346.7 38 373.3 36 400 37.5C426.7 39 453.3 44 480 43.3C506.7 42.7 533.3 36.3 560 36.8C586.7 37.3 613.3 44.7 640 48.2C666.7 51.7 693.3 51.3 720 48.2C746.7 45 773.3 39 800 35.7C826.7 32.3 853.3 31.7 880 34.8C906.7 38 933.3 45 946.7 48.5L960 52L960 0L946.7 0C933.3 0 906.7 0 880 0C853.3 0 826.7 0 800 0C773.3 0 746.7 0 720 0C693.3 0 666.7 0 640 0C613.3 0 586.7 0 560 0C533.3 0 506.7 0 480 0C453.3 0 426.7 0 400 0C373.3 0 346.7 0 320 0C293.3 0 266.7 0 240 0C213.3 0 186.7 0 160 0C133.3 0 106.7 0 80 0C53.3 0 26.7 0 13.3 0L0 0Z" fill="#f59e0b"></path></svg>