<svg id="visual" viewBox="0 0 900 600" width="900" height="600" xmlns="http://www.w3.org/2000/svg" xmlns:xlink="http://www.w3.org/1999/xlink" version="1.1"><rect x="0" y="0" width="900" height="600" fill="#475569"></rect><path d="M0 413L16.7 417.5C33.3 422 66.7 431 100 430.5C133.3 430 166.7 420 200 418.3C233.3 416.7 266.7 423.3 300 426.5C333.3 429.7 366.7 429.3 400 427.8C433.3 426.3 466.7 423.7 500 422.2C533.3 420.7 566.7 420.3 600 423C633.3 425.7 666.7 431.3 700 432.2C733.3 433 766.7 429 800 427.2C833.3 425.3 866.7 425.7 883.3 425.8L900 426L900 601L883.3 601C866.7 601 833.3 601 800 601C766.7 601 733.3 601 700 601C666.7 601 633.3 601 600 601C566.7 601 533.3 601 500 601C466.7 601 433.3 601 400 601C366.7 601 333.3 601 300 601C266.7 601 233.3 601 200 601C166.7 601 133.3 601 100 601C66.7 601 33.3 601 16.7 601L0 601Z" fill="#f59e0b"></path><path d="M0 447L16.7 450.3C33.3 453.7 66.7 460.3 100 460.2C133.3 460 166.7 453 200 448.3C233.3 443.7 266.7 441.3 300 443.2C333.3 445 366.7 451 400 454.7C433.3 458.3 466.7 459.7 500 457.3C533.3 455 566.7 449 600 447.8C633.3 446.7 666.7 450.3 700 452.7C733.3 455 766.7 456 800 458.2C833.3 460.3 866.7 463.7 883.3 465.3L900 467L900 601L883.3 601C866.7 601 833.3 601 800 601C766.7 601 733.3 601 700 601C666.7 601 633.3 601 600 601C566.7 601 533.3 601 500 601C466.7 601 433.3 601 400 601C366.7 601 333.3 601 300 601C266.7 601 233.3 601 200 601C166.7 601 133.3 601 100 601C66.7 601 33.3 601 16.7 601L0 601Z" fill="#f88226"></path><path d="M0 467L16.7 468.2C33.3 469.3 66.7 471.7 100 474.5C133.3 477.3 166.7 480.7 200 483.2C233.3 485.7 266.7 487.3 300 486.7C333.3 486 366.7 483 400 480.8C433.3 478.7 466.7 477.3 500 480C533.3 482.7 566.7 489.3 600 488.3C633.3 487.3 666.7 478.7 700 474.8C733.3 471 766.7 472 800 476C833.3 480 866.7 487 883.3 490.5L900 494L900 601L883.3 601C866.7 601 833.3 601 800 601C766.7 601 733.3 601 700 601C666.7 601 633.3 601 600 601C566.7 601 533.3 601 500 601C466.7 601 433.3 601 400 601C366.7 601 333.3 601 300 601C266.7 601 233.3 601 200 601C166.7 601 133.3 601 100 601C66.7 601 33.3 601 16.7 601L0 601Z" fill="#f5663a"></path><path d="M0 501L16.7 504.5C33.3 508 66.7 515 100 516.3C133.3 517.7 166.7 513.3 200 509.5C233.3 505.7 266.7 502.3 300 503C333.3 503.7 366.7 508.3 400 511.5C433.3 514.7 466.7 516.3 500 516.2C533.3 516 566.7 514 600 515C633.3 516 666.7 520 700 518C733.3 516 766.7 508 800 503.8C833.3 499.7 866.7 499.3 883.3 499.2L900 499L900 601L883.3 601C866.7 601 833.3 601 800 601C766.7 601 733.3 601 700 601C666.7 601 633.3 601 600 601C566.7 601 533.3 601 500 601C466.7 601 433.3 601 400 601C366.7 601 333.3 601 300 601C266.7 601 233.3 601 200 601C166.7 601 133.3 601 100 601C66.7 601 33.3 601 16.7 601L0 601Z" fill="#eb4c4b"></path><path d="M0 541L16.7 540C33.3 539 66.7 537 100 537C133.3 537 166.7 539 200 540.8C233.3 542.7 266.7 544.3 300 544C333.3 543.7 366.7 541.3 400 540C433.3 538.7 466.7 538.3 500 537.8C533.3 537.3 566.7 536.7 600 537.8C633.3 539 666.7 542 700 541.3C733.3 540.7 766.7 536.3 800 535.8C833.3 535.3 866.7 538.7 883.3 540.3L900 542L900 601L883.3 601C866.7 601 833.3 601 800 601C766.7 601 733.3 601 700 601C666.7 601 633.3 601 600 601C566.7 601 533.3 601 500 601C466.7 601 433.3 601 400 601C366.7 601 333.3 601 300 601C266.7 601 233.3 601 200 601C166.7 601 133.3 601 100 601C66.7 601 33.3 601 16.7 601L0 601Z" fill="#dc355b"></path><path d="M0 572L16.7 570.3C33.3 568.7 66.7 565.3 100 563.7C133.3 562 166.7 562 200 564.2C233.3 566.3 266.7 570.7 300 570.8C333.3 571 366.7 567 400 565.2C433.3 563.3 466.7 563.7 500 563C533.3 562.3 566.7 560.7 600 561.5C633.3 562.3 666.7 565.7 700 566.8C733.3 568 766.7 567 800 567.2C833.3 567.3 866.7 568.7 883.3 569.3L900 570L900 601L883.3 601C866.7 601 833.3 601 800 601C766.7 601 733.3 601 700 601C666.7 601 633.3 601 600 601C566.7 601 533.3 601 500 601C466.7 601 433.3 601 400 601C366.7 601 333.3 601 300 601C266.7 601 233.3 601 200 601C166.7 601 133.3 601 100 601C66.7 601 33.3 601 16.7 601L0 601Z" fill="#c62368"></path></svg>